<svg width="70" height="68" viewBox="0 0 70 68" fill="none" xmlns="http://www.w3.org/2000/svg">
<path d="M62.4375 50.625C64.2277 50.625 65.9446 49.9138 67.2105 48.648C68.4763 47.3821 69.1875 45.6652 69.1875 43.875V6.75C69.1875 4.95979 68.4763 3.2429 67.2105 1.97703C65.9446 0.711158 64.2277 0 62.4375 0H26.865C28.0462 2.05875 28.6875 4.3875 28.6875 6.75H62.4375V43.875H32.0625V50.625M45.5625 16.875V23.625H25.3125V67.5H18.5625V47.25H11.8125V67.5H5.0625V40.5H0V23.625C0 21.8348 0.711158 20.1179 1.97703 18.852C3.2429 17.5862 4.95979 16.875 6.75 16.875H45.5625ZM21.9375 6.75C21.9375 8.54021 21.2263 10.2571 19.9605 11.523C18.6946 12.7888 16.9777 13.5 15.1875 13.5C13.3973 13.5 11.6804 12.7888 10.4145 11.523C9.14866 10.2571 8.4375 8.54021 8.4375 6.75C8.4375 4.95979 9.14866 3.2429 10.4145 1.97703C11.6804 0.711158 13.3973 0 15.1875 0C16.9777 0 18.6946 0.711158 19.9605 1.97703C21.2263 3.2429 21.9375 4.95979 21.9375 6.75Z" fill="white"/>
</svg>
